<svg width="29" height="29" viewBox="0 0 29 29" fill="none" xmlns="http://www.w3.org/2000/svg">
<rect width="29" height="29" fill="#1E1E1E"/>
<g id="Group 80">
<rect id="Rectangle 28" x="-1216" y="-193" width="1440" height="2324" fill="#D9D9D9"/>
<g id="Union" filter="url(#filter0_d_0_1)">
<mask id="path-2-inside-1_0_1" fill="white">
<path fill-rule="evenodd" clip-rule="evenodd" d="M33.7201 -78.779L15.5 -106L-2.72012 -78.779H-275C-286.046 -78.779 -295 -69.8247 -295 -58.779V506C-295 517.046 -286.046 526 -275 526H72C83.0457 526 92 517.046 92 506V-58.779C92 -69.8247 83.0457 -78.779 72 -78.779H33.7201Z"/>
</mask>
<path fill-rule="evenodd" clip-rule="evenodd" d="M33.7201 -78.779L15.5 -106L-2.72012 -78.779H-275C-286.046 -78.779 -295 -69.8247 -295 -58.779V506C-295 517.046 -286.046 526 -275 526H72C83.0457 526 92 517.046 92 506V-58.779C92 -69.8247 83.0457 -78.779 72 -78.779H33.7201Z" fill="white"/>
<path d="M15.5 -106L16.331 -106.556L15.5 -107.798L14.669 -106.556L15.5 -106ZM33.7201 -78.779L32.8891 -78.2228L33.1861 -77.779H33.7201V-78.779ZM-2.72012 -78.779V-77.779H-2.18613L-1.8891 -78.2228L-2.72012 -78.779ZM14.669 -105.444L32.8891 -78.2228L34.5511 -79.3353L16.331 -106.556L14.669 -105.444ZM-1.8891 -78.2228L16.331 -105.444L14.669 -106.556L-3.55115 -79.3353L-1.8891 -78.2228ZM-275 -77.779H-2.72012V-79.779H-275V-77.779ZM-294 -58.779C-294 -69.2724 -285.493 -77.779 -275 -77.779V-79.779C-286.598 -79.779 -296 -70.377 -296 -58.779H-294ZM-294 506V-58.779H-296V506H-294ZM-275 525C-285.493 525 -294 516.493 -294 506H-296C-296 517.598 -286.598 527 -275 527V525ZM72 525H-275V527H72V525ZM91 506C91 516.493 82.4934 525 72 525V527C83.598 527 93 517.598 93 506H91ZM91 -58.779V506H93V-58.779H91ZM72 -77.779C82.4934 -77.779 91 -69.2724 91 -58.779H93C93 -70.377 83.598 -79.779 72 -79.779V-77.779ZM33.7201 -77.779H72V-79.779H33.7201V-77.779Z" fill="black" mask="url(#path-2-inside-1_0_1)"/>
</g>
<g id="Group 71">
<g id="Group 106">
<rect id="Rectangle 60" width="29" height="29" rx="14.5" fill="#FFCACA"/>
<path id="Vector" d="M6.00114 8.57131C6.00114 8.41979 6.06133 8.27447 6.16847 8.16733C6.2756 8.06019 6.42091 8 6.57242 8H7.07286C7.9035 8 8.38108 8.54046 8.65758 9.07977C8.8461 9.44883 8.98207 9.89902 9.09518 10.2898H20.8578C21.0343 10.2898 21.2085 10.3308 21.3665 10.4095C21.5246 10.4881 21.6622 10.6024 21.7687 10.7432C21.8752 10.884 21.9476 11.0476 21.9803 11.2211C22.0129 11.3946 22.0049 11.5733 21.9569 11.7432L20.2477 17.7705C20.1117 18.2487 19.8235 18.6695 19.4268 18.9691C19.0301 19.2687 18.5465 19.4308 18.0494 19.4307H12.2463C11.7451 19.4309 11.2577 19.2662 10.8592 18.9621C10.4607 18.6579 10.1733 18.2312 10.0412 17.7476L9.3077 15.0568C9.30349 15.0447 9.29968 15.0325 9.29627 15.0202L8.1183 11.0245L8.00404 10.6394C7.88979 10.2441 7.78924 9.89445 7.63842 9.6008C7.45676 9.24659 7.28994 9.14375 7.07172 9.14375H6.57128C6.41977 9.14375 6.27446 9.08356 6.16732 8.97642C6.06019 8.86928 6 8.72397 6 8.57245L6.00114 8.57131ZM10.3977 14.7117L11.1438 17.4494C11.2099 17.6911 11.3537 17.9043 11.5529 18.0563C11.7521 18.2082 11.9958 18.2905 12.2463 18.2904H18.0505C18.299 18.2901 18.5406 18.2089 18.7387 18.059C18.9368 17.9091 19.0807 17.6987 19.1485 17.4597L20.8578 11.4324H9.43223L10.3977 14.7117ZM14.0025 22.2861C14.0025 22.7406 13.8219 23.1766 13.5005 23.498C13.1791 23.8194 12.7432 24 12.2886 24C11.8341 24 11.3982 23.8194 11.0768 23.498C10.7554 23.1766 10.5748 22.7406 10.5748 22.2861C10.5748 21.8315 10.7554 21.3956 11.0768 21.0742C11.3982 20.7527 11.8341 20.5722 12.2886 20.5722C12.7432 20.5722 13.1791 20.7527 13.5005 21.0742C13.8219 21.3956 14.0025 21.8315 14.0025 22.2861ZM12.8599 22.2861C12.8599 22.1346 12.7997 21.9892 12.6926 21.8821C12.5854 21.775 12.4401 21.7148 12.2886 21.7148C12.1371 21.7148 11.9918 21.775 11.8847 21.8821C11.7775 21.9892 11.7173 22.1346 11.7173 22.2861C11.7173 22.4376 11.7775 22.5829 11.8847 22.6901C11.9918 22.7972 12.1371 22.8574 12.2886 22.8574C12.4401 22.8574 12.5854 22.7972 12.6926 22.6901C12.7997 22.5829 12.8599 22.4376 12.8599 22.2861ZM19.7152 22.2861C19.7152 22.7406 19.5347 23.1766 19.2133 23.498C18.8919 23.8194 18.4559 24 18.0014 24C17.5469 24 17.1109 23.8194 16.7895 23.498C16.4681 23.1766 16.2876 22.7406 16.2876 22.2861C16.2876 21.8315 16.4681 21.3956 16.7895 21.0742C17.1109 20.7527 17.5469 20.5722 18.0014 20.5722C18.4559 20.5722 18.8919 20.7527 19.2133 21.0742C19.5347 21.3956 19.7152 21.8315 19.7152 22.2861ZM18.5727 22.2861C18.5727 22.1346 18.5125 21.9892 18.4054 21.8821C18.2982 21.775 18.1529 21.7148 18.0014 21.7148C17.8499 21.7148 17.7046 21.775 17.5974 21.8821C17.4903 21.9892 17.4301 22.1346 17.4301 22.2861C17.4301 22.4376 17.4903 22.5829 17.5974 22.6901C17.7046 22.7972 17.8499 22.8574 18.0014 22.8574C18.1529 22.8574 18.2982 22.7972 18.4054 22.6901C18.5125 22.5829 18.5727 22.4376 18.5727 22.2861Z" fill="#FF0000"/>
<line id="Line 20" x1="21.7071" y1="6.70711" x2="7.70711" y2="20.7071" stroke="#FF0000" stroke-width="2"/>
<line id="Line 21" x1="23.7071" y1="6.70711" x2="6.70711" y2="23.7071" stroke="#FFCACA" stroke-width="2"/>
</g>
</g>
</g>
<defs>
<filter id="filter0_d_0_1" x="-300" y="-111" width="413" height="658" filterUnits="userSpaceOnUse" color-interpolation-filters="sRGB">
<feFlood flood-opacity="0" result="BackgroundImageFix"/>
<feColorMatrix in="SourceAlpha" type="matrix" values="0 0 0 0 0 0 0 0 0 0 0 0 0 0 0 0 0 0 127 0" result="hardAlpha"/>
<feOffset dx="8" dy="8"/>
<feGaussianBlur stdDeviation="6.5"/>
<feComposite in2="hardAlpha" operator="out"/>
<feColorMatrix type="matrix" values="0 0 0 0 0 0 0 0 0 0 0 0 0 0 0 0 0 0 0.25 0"/>
<feBlend mode="normal" in2="BackgroundImageFix" result="effect1_dropShadow_0_1"/>
<feBlend mode="normal" in="SourceGraphic" in2="effect1_dropShadow_0_1" result="shape"/>
</filter>
</defs>
</svg>
