<svg width="413" height="658" viewBox="0 0 413 658" fill="none" xmlns="http://www.w3.org/2000/svg">
<g filter="url(#filter0_d_1_428)">
<mask id="path-1-inside-1_1_428" fill="white">
<path fill-rule="evenodd" clip-rule="evenodd" d="M333.72 32.221L315.5 5L297.28 32.221H25C13.9543 32.221 5 41.1753 5 52.221V617C5 628.046 13.9543 637 25 637H372C383.046 637 392 628.046 392 617V52.221C392 41.1753 383.046 32.221 372 32.221H333.72Z"/>
</mask>
<path fill-rule="evenodd" clip-rule="evenodd" d="M333.72 32.221L315.5 5L297.28 32.221H25C13.9543 32.221 5 41.1753 5 52.221V617C5 628.046 13.9543 637 25 637H372C383.046 637 392 628.046 392 617V52.221C392 41.1753 383.046 32.221 372 32.221H333.72Z" fill="white"/>
<path d="M315.5 5L316.331 4.44376L315.5 3.20221L314.669 4.44376L315.5 5ZM333.72 32.221L332.889 32.7772L333.186 33.221H333.72V32.221ZM297.28 32.221V33.221H297.814L298.111 32.7772L297.28 32.221ZM314.669 5.55624L332.889 32.7772L334.551 31.6647L316.331 4.44376L314.669 5.55624ZM298.111 32.7772L316.331 5.55624L314.669 4.44376L296.449 31.6647L298.111 32.7772ZM25 33.221H297.28V31.221H25V33.221ZM6 52.221C6 41.7276 14.5066 33.221 25 33.221V31.221C13.402 31.221 4 40.623 4 52.221H6ZM6 617V52.221H4V617H6ZM25 636C14.5066 636 6 627.493 6 617H4C4 628.598 13.402 638 25 638V636ZM372 636H25V638H372V636ZM391 617C391 627.493 382.493 636 372 636V638C383.598 638 393 628.598 393 617H391ZM391 52.221V617H393V52.221H391ZM372 33.221C382.493 33.221 391 41.7276 391 52.221H393C393 40.623 383.598 31.221 372 31.221V33.221ZM333.72 33.221H372V31.221H333.72V33.221Z" fill="black" mask="url(#path-1-inside-1_1_428)"/>
</g>
<defs>
<filter id="filter0_d_1_428" x="0" y="0" width="413" height="658" filterUnits="userSpaceOnUse" color-interpolation-filters="sRGB">
<feFlood flood-opacity="0" result="BackgroundImageFix"/>
<feColorMatrix in="SourceAlpha" type="matrix" values="0 0 0 0 0 0 0 0 0 0 0 0 0 0 0 0 0 0 127 0" result="hardAlpha"/>
<feOffset dx="8" dy="8"/>
<feGaussianBlur stdDeviation="6.5"/>
<feComposite in2="hardAlpha" operator="out"/>
<feColorMatrix type="matrix" values="0 0 0 0 0 0 0 0 0 0 0 0 0 0 0 0 0 0 0.25 0"/>
<feBlend mode="normal" in2="BackgroundImageFix" result="effect1_dropShadow_1_428"/>
<feBlend mode="normal" in="SourceGraphic" in2="effect1_dropShadow_1_428" result="shape"/>
</filter>
</defs>
</svg>
